<?xml version="1.0" encoding="UTF-8" standalone="no"?>
<!-- Created with Inkscape (http://www.inkscape.org/) -->

<svg
   width="800"
   height="800"
   viewBox="0 0 211.66666 211.66667"
   version="1.1"
   id="svg1"
   xml:space="preserve"
   inkscape:version="1.4.4 (dcaf3e7d9e, 2026-05-05)"
   sodipodi:docname="app_icon_brown.svg"
   xmlns:inkscape="http://www.inkscape.org/namespaces/inkscape"
   xmlns:sodipodi="http://sodipodi.sourceforge.net/DTD/sodipodi-0.dtd"
   xmlns="http://www.w3.org/2000/svg"
   xmlns:svg="http://www.w3.org/2000/svg"><sodipodi:namedview
     id="namedview1"
     pagecolor="#505050"
     bordercolor="#eeeeee"
     borderopacity="1"
     inkscape:showpageshadow="0"
     inkscape:pageopacity="0"
     inkscape:pagecheckerboard="0"
     inkscape:deskcolor="#505050"
     inkscape:document-units="px"
     inkscape:zoom="0.36740898"
     inkscape:cx="787.95026"
     inkscape:cy="58.517895"
     inkscape:window-width="1804"
     inkscape:window-height="1368"
     inkscape:window-x="0"
     inkscape:window-y="0"
     inkscape:window-maximized="1"
     inkscape:current-layer="layer1" /><defs
     id="defs1" /><g
     inkscape:label="Ebene 1"
     inkscape:groupmode="layer"
     id="layer1"><path
       id="rect3"
       style="fill:#ffffff;stroke:#fdfdfd;stroke-width:0;stroke-linecap:round;stroke-linejoin:round;paint-order:stroke fill markers"
       d="M 15.874997,-3.376465e-6 H 195.79167 c 8.79475,0 15.875,7.080249976465 15.875,15.875000376465 V 195.79167 c 0,8.79475 -7.08025,15.875 -15.875,15.875 H 15.874997 c -8.7947504,0 -15.875000376465,-7.08025 -15.875000376465,-15.875 V 15.874997 C -3.376465e-6,7.0802466 7.0802466,-3.376465e-6 15.874997,-3.376465e-6 Z" /><path
       id="rect3-7"
       style="fill:#815138;stroke:#fdfdfd;stroke-width:0;stroke-linecap:round;stroke-linejoin:round;paint-order:stroke fill markers"
       d="M 21.166668,5.2916684 H 190.5 c 8.79475,0 15.875,7.0802496 15.875,15.8749996 V 190.5 c 0,8.79475 -7.08025,15.875 -15.875,15.875 H 21.166668 c -8.79475,0 -15.8749996,-7.08025 -15.8749996,-15.875 V 21.166668 c 0,-8.79475 7.0802496,-15.8749996 15.8749996,-15.8749996 z" /><path
       d="m 64.196512,119.10634 q 11.947998,0 20.751786,4.5067 8.908595,4.40189 13.729717,12.68165 4.821125,8.27975 4.821125,19.4941 0,11.21435 -4.821125,19.4941 -4.821122,8.17495 -13.729717,12.68165 -8.803788,4.5067 -20.751786,4.5067 h -24.10561 l -0.104807,-3.98267 q 1.991333,0 4.925929,0 3.039403,0 6.183613,0 3.249017,0 5.973999,0 2.829789,0 4.506701,0 1.781719,0 1.781719,0 8.070139,0 13.834524,-3.98266 5.869192,-4.08748 9.118209,-11.42397 3.249017,-7.33649 3.249017,-17.29315 0,-9.95667 -3.249017,-17.29316 -3.249017,-7.33649 -9.118209,-11.31915 -5.869192,-4.08748 -13.834524,-4.08748 0,0 -1.886526,0 -1.781719,0 -4.716315,0 -2.829789,0 -6.183613,0 -3.353824,0 -6.498034,0 -3.039403,0 -5.135543,0 v -3.98266 z m -16.349892,0 v 73.3649 H 35.060166 v -73.3649 z m -12.472033,65.71399 v 7.65091 h -8.38456 v -1.04807 q 0,0 0.628842,0 0.733649,0 0.733649,0 2.724982,0 4.611508,-1.88653 1.991333,-1.99133 2.09614,-4.71631 z m 0,-58.06308 h -0.314421 q 0,-2.72498 -1.991333,-4.61151 -1.991333,-1.99133 -4.716315,-1.99133 0,0 -0.628842,0 -0.628842,0 -0.628842,0 l -0.104807,-1.04807 h 8.38456 z"
       id="text2"
       style="font-size:104.807px;font-family:Cinzel;-inkscape-font-specification:'Cinzel, Normal';letter-spacing:30.9019px;fill:#ba886c;stroke:#fdfdfd;stroke-width:0;stroke-linecap:round;stroke-linejoin:round;paint-order:fill markers stroke"
       transform="scale(1.009522,0.99056782)"
       aria-label="D" /><path
       id="path1"
       style="fill:#ffffff;fill-opacity:1;stroke-width:0.912046"
       d="m 166.83219,16.513626 c -0.16836,0.04484 -0.33186,0.09986 -0.4877,0.167418 -0.65357,0.281645 -2.12706,0.716463 -3.2739,0.966198 -1.14687,0.249682 -2.80934,0.808031 -3.69486,1.241118 -0.88551,0.433001 -1.89307,0.917853 -2.2387,1.077026 -0.34558,0.159283 -0.68504,0.433099 -0.75433,0.609142 -0.0693,0.175915 -0.85746,0.667467 -1.75136,1.092457 -1.90507,0.905752 -6.76918,3.529762 -9.92947,5.3568 -1.22227,0.706809 -2.83649,1.569789 -3.58715,1.917582 -0.75064,0.347793 -2.66825,1.671484 -4.26138,2.941565 -1.94979,1.554658 -3.52591,2.523603 -4.82174,2.965516 -1.05867,0.3612 -2.50822,0.940476 -3.22148,1.287732 -4.32266,2.104345 -10.44471,4.67285 -14.65514,6.148342 -2.66975,0.935564 -5.27656,1.973175 -5.79248,2.306489 -0.5161,0.332975 -1.44859,0.855449 -2.07239,1.160414 -0.62378,0.304956 -2.11436,1.208711 -3.3127,2.007732 -1.19825,0.799203 -3.728606,2.44427 -5.62334,3.655592 -1.894486,1.211581 -4.426103,2.851917 -5.625816,3.645418 -1.199744,0.793489 -2.517003,1.522782 -2.926931,1.62037 -0.409781,0.09811 -0.76304,0.319095 -0.784698,0.492954 -0.05413,0.433995 -6.192245,4.236288 -8.597875,5.326002 -2.780841,1.259661 -5.564878,2.296874 -5.910985,2.201629 -0.162371,-0.04466 -0.250903,0.08839 -0.197064,0.295214 0.06868,0.266424 -1.898436,0.829747 -6.714685,1.922107 -7.967194,1.807123 -7.780144,1.753195 -7.392395,2.123958 0.40036,0.382925 -0.276007,0.520444 -1.289858,0.262402 -0.689036,-0.17537 -0.760538,-0.130396 -0.460203,0.287978 0.181826,0.253488 0.302677,0.471259 0.28448,0.508712 -1.76e-4,2.96e-4 -3.13e-4,7.68e-4 -0.0026,0.0035 -3.08e-4,7.56e-4 -0.0038,0.0029 -0.0069,0.0046 -2.52e-4,1.11e-4 -6.02e-4,1.26e-4 -6.1e-4,10e-5 -0.04298,0.0091 -0.61662,-0.0049 -1.275646,-0.03291 -0.802033,-0.03405 -1.168222,0.06515 -1.107109,0.299628 0.05051,0.192569 -0.163796,0.317642 -0.475651,0.277625 -0.311833,-0.03999 -0.537041,0.04207 -0.500579,0.182129 0.03698,0.14035 -0.423729,0.423525 -1.023287,0.628702 -0.599524,0.205252 -1.387754,0.492573 -1.751541,0.63876 -0.363571,0.146595 -1.276894,0.427154 -2.029339,0.624044 -1.015662,0.265786 -1.212904,0.411024 -0.766232,0.56372 0.460901,0.157555 0.342525,0.278497 -0.504906,0.516932 -0.608534,0.170956 -1.251348,0.385772 -1.428545,0.47696 -0.177277,0.09086 -0.713278,0.27781 -1.19159,0.415437 -0.485361,0.139417 -0.736898,0.377358 -0.569088,0.537867 0.18007,0.172289 -0.22447,0.412905 -1.008769,0.601653 -0.972219,0.233239 -1.154608,0.367392 -0.708015,0.52011 0.434748,0.148597 0.125903,0.326143 -1.112211,0.638854 -1.566045,0.396072 -1.631439,0.448435 -0.753126,0.615929 0.94119,0.179542 0.935339,0.192163 -0.29809,0.607173 -0.692849,0.232884 -1.228163,0.544273 -1.18968,0.69191 0.03791,0.147786 -1.014543,0.620841 -2.339884,1.051817 -2.638167,0.857839 -3.537439,1.607206 -1.947947,1.62277 0.532767,0.0052 1.008512,0.162652 1.057338,0.34996 0.04903,0.187267 -0.241567,0.334218 -0.645272,0.326418 -0.403708,-0.0078 -0.784695,0.143937 -0.846714,0.337565 -0.06213,0.193361 -0.637206,0.47505 -1.277415,0.626058 -1.183529,0.279474 -1.778629,0.945459 -0.92086,1.031172 0.259176,0.02589 -0.404651,0.469754 -1.475597,0.986496 -1.90789,0.92055 -1.922022,0.938199 -0.688148,0.865171 1.186706,-0.07028 1.144951,-0.02927 -0.727264,0.713245 -1.891983,0.750102 -1.9263,0.784847 -0.723609,0.727278 l 1.262637,-0.06023 -1.258763,0.3441 c -0.692326,0.189277 -1.314703,0.519527 -1.383485,0.732437 -0.141898,0.441615 0.891509,0.209011 3.710045,-0.834912 1.053587,-0.390605 1.943882,-0.602198 1.978401,-0.469852 0.07745,0.297591 -2.638737,2.020945 -2.921164,1.85327 -0.302967,-0.179877 -4.896868,3.740638 -5.263135,4.491691 -0.19008,0.389755 -0.169565,0.608587 0.05232,0.556246 0.201265,-0.04764 0.425883,-0.27314 0.499358,-0.500729 0.07322,-0.227957 0.379761,-0.382667 0.681293,-0.344124 0.346619,0.04441 0.421943,-0.05078 0.20468,-0.258497 -0.198381,-0.1898 -0.168838,-0.2727 0.07091,-0.196179 0.228254,0.07303 0.547706,-0.139144 0.70948,-0.470735 0.161814,-0.331815 0.455184,-0.641362 0.652041,-0.687792 0.196832,-0.04656 -0.473022,1.220657 -1.488522,2.81562 -1.015514,1.594927 -1.752255,2.955954 -1.637057,3.024311 0.115164,0.06837 0.02342,0.372341 -0.203835,0.675401 -0.227266,0.303087 -0.367073,0.727985 -0.31065,0.944494 0.0571,0.216303 -0.21858,1.028454 -0.611151,1.803814 -0.620367,1.22541 -0.810629,2.32859 -0.384406,2.22806 0.07506,-0.0183 0.712301,-0.56928 1.415679,-1.22584 1.318879,-1.23112 2.272214,-1.70776 2.053354,-1.02657 -0.175899,0.54732 0.340513,0.36587 1.646966,-0.57908 0.619822,-0.448354 1.298279,-0.760494 1.507879,-0.693411 0.209561,0.06711 0.340216,-0.03562 0.289995,-0.228477 -0.09294,-0.35569 1.988655,-2.29044 2.62586,-2.440781 0.190908,-0.04504 0.314823,0.186198 0.27577,0.514137 -0.120594,1.010554 0.885821,-0.133986 2.795601,-3.179281 1.614596,-2.574699 2.769129,-3.931486 1.751556,-2.058449 -0.24583,0.452388 -0.321237,0.793031 -0.167903,0.756848 0.153254,-0.03634 0.08778,0.286112 -0.146174,0.71616 -0.233567,0.429941 -0.266847,0.832005 -0.07443,0.893561 0.407464,0.130424 2.154281,-2.402394 3.055417,-4.429782 0.640332,-1.440677 0.92217,-1.313949 0.731341,0.329213 -0.05955,0.512939 0.03044,0.97699 0.200106,1.031324 0.367101,0.117487 2.328324,-2.718664 2.638885,-3.816273 0.119599,-0.422625 0.274108,-0.570577 0.343207,-0.328751 0.06896,0.241899 0.256385,0.308987 0.415446,0.149724 0.159388,-0.159493 0.362631,-0.01569 0.452056,0.320073 0.100469,0.376197 0.355452,-0.01934 0.665248,-1.031978 0.276403,-0.903312 0.554608,-1.654841 0.618614,-1.669944 0.06383,-0.01555 0.133303,0.533411 0.153023,1.218993 0.04986,1.704828 0.485599,1.459944 1.09828,-0.6175 0.48695,-1.651138 0.969548,-2.407245 0.839162,-1.314495 -0.107587,0.901387 1.282785,-0.104157 2.054236,-1.485735 0.61921,-1.108906 0.708823,-1.169877 0.676981,-0.462298 -0.04814,1.070955 0.249465,0.960185 0.993019,-0.368804 0.347503,-0.621467 0.978614,-1.17228 1.479252,-1.290378 0.480514,-0.112823 0.928711,-0.37718 0.99607,-0.586577 0.07393,-0.230073 0.276122,-0.234064 0.510639,-0.0098 0.298314,0.285306 0.658262,0.08356 1.554166,-0.871289 0.641168,-0.683311 1.207332,-1.082987 1.258106,-0.888076 0.06243,0.241126 0.269133,0.198698 0.645215,-0.132947 0.496504,-0.437941 1.251057,-0.790864 3.952811,-1.847987 0.45608,-0.177736 0.820814,-0.356072 0.810757,-0.394774 -0.01119,-0.03838 0.279909,-0.186665 0.644513,-0.329177 0.364694,-0.142518 1.161349,-0.495728 1.76997,-0.786066 0.877145,-0.418372 1.072354,-0.421855 0.941421,-0.01381 -0.126367,0.393293 -0.0276,0.410494 0.418985,0.0729 0.321275,-0.242916 1.281689,-0.672263 2.134416,-0.954267 1.206731,-0.39909 1.630053,-0.402009 1.90837,-0.01439 0.20798,0.289632 0.176823,0.621373 -0.07487,0.792167 -0.237878,0.161389 -0.430482,0.684506 -0.428265,1.162756 0.0023,0.478209 -0.143009,0.904456 -0.322766,0.946862 -0.179836,0.04219 -0.178369,0.284078 0.0032,0.537047 0.217745,0.303497 0.115101,0.520352 -0.301986,0.637426 -0.347569,0.09802 -0.423146,0.207868 -0.167412,0.245391 0.57936,0.08482 0.02654,1.910752 -0.625046,2.064487 -0.232648,0.05567 -0.624465,0.470162 -0.870248,0.92255 -0.245792,0.452419 -0.732608,0.889623 -1.081845,0.972016 -0.349203,0.08265 -0.602608,0.273903 -0.563084,0.425372 0.116878,0.450614 -1.984666,1.968627 -3.085149,2.228266 -0.584523,0.137981 -0.976114,0.421939 -0.915939,0.664433 0.05831,0.232714 -0.531856,1.438961 -1.310548,2.680312 -0.778678,1.241357 -1.378156,2.402271 -1.331838,2.579985 0.04633,0.177715 -0.193524,1.063282 -0.533586,1.967869 -0.340017,0.90457 -0.871098,2.657527 -1.180091,3.8955 -0.308984,1.237933 -0.971271,2.898758 -1.471744,3.690545 -0.500451,0.79181 -0.831443,1.61096 -0.735323,1.82015 0.09673,0.20898 0.13626,1.06774 0.08902,1.90806 -0.07551,1.34457 0.01083,1.61569 0.721341,2.26014 0.443804,0.40283 0.752933,0.90213 0.685998,1.1097 -0.06664,0.20732 0.184579,0.30463 0.558355,0.21654 0.414164,-0.0964 1.519778,-1.64954 2.824756,-3.96454 1.179366,-2.09224 2.203854,-3.57464 2.276974,-3.29411 0.07267,0.28058 -0.121816,0.95187 -0.433149,1.49195 -0.557537,0.96718 -1.034477,2.45918 -1.355854,4.24052 -0.191002,1.05883 0.481152,2.54911 1.333078,2.95578 0.326942,0.15604 0.544592,0.43891 0.483784,0.62812 -0.06079,0.18922 0.02044,0.31319 0.18093,0.27518 0.638611,-0.15096 4.367377,-8.02499 5.154403,-10.885322 1.256962,-4.567972 1.572519,-4.830094 7.616846,-6.321728 4.484536,-1.10666 5.324406,-1.421842 8.277569,-3.107752 3.451326,-1.970274 5.719048,-3.737098 7.338489,-5.717786 1.968836,-2.408067 4.217122,-4.166836 6.342617,-4.961315 0.641823,-0.239924 1.223857,-0.613631 1.293377,-0.829952 0.0695,-0.216371 0.42125,-0.355158 0.78145,-0.30949 0.43038,0.05515 0.76083,-0.188656 0.96274,-0.708641 0.27056,-0.697663 0.50894,-0.802561 1.99477,-0.87708 1.2191,-0.06114 1.80094,-0.235894 2.09533,-0.628534 0.22413,-0.298968 1.03621,-0.715705 1.80457,-0.92601 0.76835,-0.210266 1.42683,-0.425924 1.46319,-0.47932 0.0365,-0.05361 0.17644,-0.145844 0.31174,-0.205168 0.13529,-0.05934 0.39766,-0.264356 0.58344,-0.454931 0.18563,-0.190751 0.75816,-0.516462 1.27278,-0.723261 1.34916,-0.543199 1.74389,-0.752562 3.31524,-1.759144 0.77494,-0.496242 2.48416,-1.507216 3.79846,-2.246472 1.3144,-0.73918 3.43783,-2.05323 4.71893,-2.920071 1.28109,-0.866856 3.13568,-1.95212 4.1211,-2.411545 0.98541,-0.45946 2.14324,-1.063795 2.57278,-1.342977 0.4296,-0.279171 1.26988,-0.710694 1.86752,-0.959143 0.59759,-0.248545 1.95382,-0.880723 3.01354,-1.404624 1.05971,-0.523953 1.94778,-0.871205 1.97366,-0.771908 0.0259,0.09919 0.20028,-0.02075 0.38746,-0.266444 0.83894,-1.102035 7.80019,-3.972263 8.35263,-3.443958 0.14676,0.140376 0.56239,0.185316 0.92404,0.09997 0.36155,-0.0858 1.2368,-0.0037 1.94428,0.18162 1.60743,0.421025 4.50405,0.5791 8.25707,0.450641 1.59326,-0.05453 3.20337,-0.0184 3.57795,0.08006 0.37457,0.09847 0.92923,0.120389 1.23273,0.0488 0.68404,-0.161988 1.90526,0.686076 3.40552,2.363429 0.6309,0.705336 1.4617,1.362043 1.84607,1.459876 0.7856,0.19993 2.46794,-0.292969 2.67175,-0.782805 0.15449,-0.371353 -1.3182,-3.33306 -1.79952,-3.618784 -0.68004,-0.403729 -0.52864,-1.100079 0.2811,-1.291114 0.46231,-0.108174 0.89614,-0.373018 0.96475,-0.586421 0.19437,-0.604919 1.54979,-0.787574 2.65688,-0.35834 1.59007,0.616547 5.06452,-0.242183 6.14261,-1.517956 0.46837,-0.554219 0.72439,-1.083067 0.56913,-1.175252 -0.15529,-0.0922 -0.0821,-0.215021 0.1613,-0.272342 0.73597,-0.173574 -0.43354,-0.834892 -1.8166,-1.027151 -0.67067,-0.09323 -1.47687,-0.281337 -1.79172,-0.418165 -0.72352,-0.314483 -3.42144,-0.432617 -5.84816,-0.255992 -1.96385,0.142925 -2.46659,0.05798 -6.60572,-1.114416 -3.11896,-0.883427 -3.42502,-1.061634 -4.07994,-2.37463 -0.42884,-0.859571 -0.40057,-1.209838 0.16514,-2.059388 0.94352,-1.416585 5.22441,-5.022877 7.19305,-6.059649 2.00163,-1.054069 8.97198,-2.542017 13.31141,-2.841079 2.05066,-0.141342 3.39278,-0.40049 4.17377,-0.806662 0.63312,-0.329279 1.61601,-0.842454 2.18402,-1.140139 0.56809,-0.297635 1.4663,-0.951924 1.99582,-1.454088 1.54837,-1.467792 1.14145,-2.535191 -1.98359,-5.2052 -1.44576,-1.23526 -2.99318,-2.67463 -3.43894,-3.198838 -0.44572,-0.524269 -1.29152,-1.118727 -1.87956,-1.321143 -1.39656,-0.480708 -4.33924,-2.400942 -4.4745,-2.919889 -0.058,-0.223152 -0.3431,-0.478637 -0.63325,-0.567859 -0.29015,-0.08927 -0.94872,-0.587132 -1.46334,-1.106626 -1.05838,-1.068317 -1.88209,-1.069755 -1.8879,-0.003 -0.005,0.86393 -0.32881,0.985433 -1.11301,0.417979 -0.97526,-0.70568 -2.40956,-0.943098 -3.5888,-0.631203 z M 28.616531,97.192514 c 0.0059,-0.0018 0.0091,-0.0027 0.01306,-1.26e-4 3.04e-4,7.2e-5 8.7e-4,2.87e-4 8.7e-4,2.87e-4 l 5.69e-4,3.41e-4 c 2.28e-4,1.35e-4 8.53e-4,3.05e-4 0.0033,0.0027 l 1.27e-4,4.39e-4 c 2.27e-4,2.96e-4 10e-4,0.0018 0.0013,0.0027 0.01091,0.02979 -0.107764,0.191432 -0.329316,0.479833 -0.828531,1.078552 -1.681583,1.798507 -1.514338,1.277969 0.07591,-0.236175 0.57046,-0.780202 1.099037,-1.208859 0.43218,-0.350288 0.661928,-0.531762 0.726315,-0.551428 z m -2.621095,2.837016 c 0.05939,-0.0179 0.08075,0.0141 0.05253,0.1021 -0.143917,0.44786 -1.265303,1.54692 -1.328986,1.30261 -0.02004,-0.0782 0.301151,-0.49891 0.714468,-0.93538 0.258313,-0.27279 0.462976,-0.43974 0.561972,-0.46931 z" /></g></svg>
