<?xml version="1.0" encoding="UTF-8" standalone="no"?>
<!-- Created with Inkscape (http://www.inkscape.org/) -->

<svg
   width="1640"
   height="440"
   viewBox="0 0 433.91665 116.41667"
   version="1.1"
   id="svg1"
   xml:space="preserve"
   inkscape:version="1.4.4 (dcaf3e7d9e, 2026-05-05)"
   sodipodi:docname="Logo_Banner_black.svg"
   xmlns:inkscape="http://www.inkscape.org/namespaces/inkscape"
   xmlns:sodipodi="http://sodipodi.sourceforge.net/DTD/sodipodi-0.dtd"
   xmlns="http://www.w3.org/2000/svg"
   xmlns:svg="http://www.w3.org/2000/svg"><sodipodi:namedview
     id="namedview1"
     pagecolor="#505050"
     bordercolor="#eeeeee"
     borderopacity="1"
     inkscape:showpageshadow="0"
     inkscape:pageopacity="0"
     inkscape:pagecheckerboard="0"
     inkscape:deskcolor="#505050"
     inkscape:document-units="px"
     inkscape:zoom="0.25979738"
     inkscape:cx="916.09854"
     inkscape:cy="78.907647"
     inkscape:window-width="1804"
     inkscape:window-height="1368"
     inkscape:window-x="0"
     inkscape:window-y="0"
     inkscape:window-maximized="1"
     inkscape:current-layer="layer1" /><defs
     id="defs1" /><g
     inkscape:label="Ebene 1"
     inkscape:groupmode="layer"
     id="layer1"><g
       id="g3"
       transform="matrix(1.0215546,0,0,1.0530683,0.56559887,-106.48279)"><path
         id="path1"
         style="fill:#000000;stroke-width:1.02183"
         d="m 368.63897,101.1167 c -0.19405,0.002 -0.38594,0.0165 -0.57341,0.0469 -0.78574,0.12538 -2.49673,0.18946 -3.80165,0.14246 -1.30495,-0.0471 -3.25588,0.0992 -4.33597,0.32535 -1.0801,0.22604 -2.30669,0.47469 -2.72529,0.55218 -0.41857,0.0776 -0.86518,0.28204 -0.99261,0.45501 -0.12749,0.1728 -1.1208,0.48996 -2.20745,0.70491 -2.31588,0.45812 -8.32289,1.96796 -12.26262,3.08237 -1.52379,0.43121 -3.51493,0.92372 -4.42472,1.09428 -0.90978,0.17058 -3.36527,1.08171 -5.45667,2.02476 -2.55973,1.15445 -4.54201,1.77332 -6.06471,1.89467 -1.24405,0.0993 -2.973,0.32787 -3.84251,0.50827 -5.26964,1.0932 -12.60855,2.19164 -17.56801,2.62923 -3.1447,0.27747 -6.25276,0.68393 -6.90649,0.90415 -0.65383,0.21979 -1.81131,0.53046 -2.57214,0.68963 -0.76083,0.15916 -2.6317,0.73067 -4.15769,1.26929 -1.52593,0.53882 -4.73535,1.63012 -7.1324,2.42489 -2.39688,0.79513 -5.60625,1.88091 -7.13203,2.4131 -1.52579,0.53218 -3.1582,0.96146 -3.62715,0.95375 -0.46895,-0.007 -0.9144,0.13577 -0.9901,0.31964 -0.18905,0.45895 -7.91764,2.90055 -10.82571,3.42003 -3.36164,0.60048 -6.65956,0.9571 -7.00187,0.75656 -0.1606,-0.0941 -0.29568,0.0266 -0.30039,0.2675 -0.007,0.31017 -2.28582,0.37696 -7.77914,0.22714 -9.08725,-0.24771 -8.87043,-0.25446 -8.56665,0.25864 0.31363,0.5299 -0.45302,0.49151 -1.46208,-0.073 -0.68578,-0.38368 -0.77602,-0.3545 -0.58032,0.18623 0.1184,0.32758 0.18223,0.59915 0.15141,0.63498 -2.7e-4,2.8e-4 -5.7e-4,7.5e-4 -0.004,0.003 -5.6e-4,7.4e-4 -0.005,0.002 -0.009,0.003 -3e-4,5e-5 -6.8e-4,-3e-5 -6.8e-4,-6e-5 -0.0489,-0.002 -0.6596,-0.17733 -1.3577,-0.39165 -0.84959,-0.26083 -1.27213,-0.25459 -1.27739,0.0186 -0.004,0.22442 -0.2715,0.30128 -0.59377,0.17061 -0.32224,-0.13064 -0.58846,-0.10379 -0.59165,0.0594 -0.003,0.16361 -0.58215,0.34446 -1.28688,0.40138 -0.70472,0.057 -1.63652,0.15107 -2.07067,0.2093 -0.43405,0.0587 -1.49793,0.11053 -2.36407,0.11577 -1.16914,0.007 -1.42444,0.11074 -0.99166,0.40208 0.44657,0.30061 0.28315,0.39971 -0.69737,0.42385 -0.70402,0.017 -1.45804,0.0725 -1.67554,0.12263 -0.2175,0.0498 -0.84858,0.10456 -1.40293,0.12151 -0.56245,0.0169 -0.90396,0.2067 -0.7725,0.42881 0.14104,0.2384 -0.36531,0.38842 -1.26315,0.37589 -1.11273,-0.0163 -1.34877,0.0794 -0.91608,0.37068 0.42124,0.28354 0.0365,0.39135 -1.38527,0.38767 -1.79855,-0.005 -1.88446,0.0349 -0.99338,0.46277 0.95486,0.45856 0.94478,0.47071 -0.50288,0.58009 -0.81311,0.0613 -1.48104,0.25203 -1.48435,0.42403 -0.004,0.17199 -1.27512,0.39522 -2.82614,0.49641 -3.08737,0.20137 -4.27772,0.76913 -2.57831,1.22934 0.56962,0.15426 1.03214,0.45888 1.02794,0.6771 -0.004,0.21821 -0.35989,0.2977 -0.79035,0.17661 -0.43045,-0.12114 -0.88473,-0.0615 -1.00967,0.13261 -0.12499,0.19388 -0.82657,0.34121 -1.55853,0.32763 -1.35324,-0.0248 -2.19231,0.53675 -1.29856,0.86957 0.27005,0.10057 -0.57564,0.40026 -1.87981,0.66606 -2.32337,0.4735 -2.34385,0.48885 -0.99896,0.75312 1.2935,0.25415 1.23635,0.2873 -0.99502,0.57628 -2.25486,0.29175 -2.30214,0.32013 -0.99535,0.59262 l 1.37187,0.28629 -1.45341,0.0249 c -0.79939,0.0138 -1.56635,0.20087 -1.70436,0.41426 -0.28545,0.4428 0.89269,0.47688 4.22962,0.12256 1.24748,-0.13288 2.26585,-0.11574 2.2629,0.0385 -0.007,0.34665 -3.43911,1.47164 -3.69128,1.20975 -0.27051,-0.28096 -6.37923,2.72038 -6.99864,3.43858 -0.32145,0.37273 -0.36552,0.61749 -0.11184,0.62218 0.23017,0.004 0.53905,-0.17958 0.68653,-0.4077 0.14733,-0.22857 0.52267,-0.31208 0.83431,-0.18589 0.35821,0.14515 0.4677,0.0622 0.29748,-0.22529 -0.15539,-0.26262 -0.0987,-0.34494 0.13525,-0.1945 0.22266,0.14344 0.62921,7.4e-4 0.90275,-0.31635 0.27365,-0.31731 0.68163,-0.57363 0.9067,-0.56945 0.22507,0.004 -0.87564,1.20141 -2.44586,2.66039 -1.57024,1.45895 -2.77098,2.74013 -2.66811,2.84693 0.10281,0.10682 -0.0873,0.41323 -0.42243,0.68089 -0.33515,0.26767 -0.61331,0.69281 -0.61818,0.94502 -0.004,0.25219 -0.54482,1.06241 -1.19977,1.79986 -1.03504,1.16552 -1.57206,2.31745 -1.08475,2.32648 0.086,0.001 0.93552,-0.42319 1.88783,-0.94422 1.78564,-0.97696 2.95161,-1.23175 2.51133,-0.54873 -0.35381,0.54878 0.25461,0.49459 1.94054,-0.17328 0.79987,-0.31688 1.62148,-0.46865 1.82594,-0.33693 0.20444,0.13168 0.37549,0.056 0.37989,-0.1687 0.008,-0.41443 2.82351,-1.94727 3.55204,-1.9338 0.21827,0.004 0.28132,0.29115 0.14045,0.63847 -0.43437,1.07019 0.99014,0.1007 3.95697,-2.69315 2.5083,-2.36207 4.15568,-3.52212 2.49928,-1.75999 -0.40012,0.42559 -0.5838,0.77665 -0.40849,0.77988 0.17527,0.003 0.008,0.33699 -0.37291,0.74148 -0.38021,0.40449 -0.53726,0.83437 -0.34956,0.95527 0.39747,0.25608 3.03488,-2.02338 4.61304,-3.98659 1.12143,-1.39507 1.38533,-1.17805 0.68469,0.56353 -0.2187,0.54367 -0.26232,1.07563 -0.0968,1.1823 0.3581,0.23068 3.31694,-2.3203 3.98125,-3.43261 0.25581,-0.42829 0.46613,-0.54679 0.4672,-0.26338 9.2e-4,0.28344 0.1816,0.40898 0.40021,0.27938 0.21903,-0.12977 0.3935,0.084 0.38802,0.47566 -0.006,0.43893 0.38691,0.078 1.02476,-0.94172 0.56904,-0.90961 1.09418,-1.6529 1.16736,-1.65155 0.0731,8.2e-4 -0.0181,0.61981 -0.20394,1.37415 -0.46121,1.87606 0.0799,1.73008 1.36389,-0.36823 1.02052,-1.66772 1.76618,-2.35903 1.2965,-1.2018 -0.38746,0.95457 1.40673,0.24393 2.6509,-1.05003 0.99862,-1.03858 1.1131,-1.08019 0.86535,-0.31619 -0.37492,1.15636 -0.0224,1.11835 1.17597,-0.12594 0.56017,-0.58192 1.40307,-1.00758 1.97547,-0.99698 0.54922,0.0106 1.10954,-0.15302 1.24497,-0.36296 0.14872,-0.23069 0.3667,-0.17867 0.55043,0.13166 0.23369,0.39482 0.6805,0.27484 1.92926,-0.51831 0.89369,-0.5676 1.62133,-0.84628 1.61693,-0.61922 -0.006,0.28079 0.22855,0.29207 0.73187,0.0347 0.66452,-0.3399 1.58003,-0.51499 4.79573,-0.91631 0.54263,-0.067 0.9875,-0.16005 0.9884,-0.20513 -4.2e-4,-0.045 0.35645,-0.12584 0.79036,-0.17983 0.43402,-0.054 1.39475,-0.21764 2.13491,-0.36507 1.06669,-0.21239 1.27703,-0.16176 1.01347,0.24744 -0.25421,0.39434 -0.15352,0.44067 0.42719,0.19645 0.41778,-0.17575 1.57706,-0.37692 2.57641,-0.44716 1.41423,-0.0994 1.86896,0.0154 2.05033,0.51642 0.13553,0.37435 0.002,0.72801 -0.31942,0.8444 -0.30375,0.10995 -0.66817,0.62763 -0.81017,1.15062 -0.14198,0.52296 -0.42637,0.94805 -0.63189,0.94424 -0.20554,-0.004 -0.27699,0.26056 -0.15866,0.58752 0.14183,0.39221 -0.0337,0.60046 -0.51619,0.61204 -0.40222,0.01 -0.51641,0.10906 -0.25356,0.22135 0.59553,0.2542 -0.54838,2.09448 -1.29337,2.08071 -0.26623,-0.005 -0.81143,0.33943 -1.2115,0.76502 -0.4001,0.42563 -1.054,0.76743 -1.4533,0.76005 -0.39933,-0.008 -0.72875,0.13115 -0.7321,0.30761 -0.0107,0.52479 -2.72208,1.5969 -3.9803,1.57362 -0.66833,-0.0123 -1.17388,0.1887 -1.18257,0.47035 -0.008,0.27045 -1.00462,1.42344 -2.21421,2.56221 -1.20958,1.13879 -2.20275,2.23967 -2.20674,2.44671 -0.004,0.20702 -0.52847,1.10744 -1.16614,2.00067 -0.63761,0.89324 -1.73618,2.65987 -2.44119,3.92591 -0.70498,1.26604 -1.91641,2.89545 -2.692,3.62075 -0.77558,0.72533 -1.37773,1.52776 -1.33783,1.78306 0.0406,0.25524 -0.17625,1.20426 -0.48058,2.10896 -0.48687,1.44761 -0.47614,1.76781 0.091,2.66986 0.3542,0.56375 0.53488,1.19534 0.40046,1.40339 -0.13403,0.20787 0.10593,0.3842 0.53325,0.39222 0.47314,0.009 2.12734,-1.37798 4.22529,-3.54273 1.89603,-1.95646 3.44191,-3.28999 3.43562,-2.96319 -0.007,0.32676 -0.41796,1.00574 -0.91478,1.50885 -0.88973,0.90098 -1.85148,2.39767 -2.73379,4.25377 -0.52443,1.10329 -0.2537,2.91852 0.53689,3.60026 0.30341,0.26161 0.45136,0.63127 0.32905,0.821 -0.1223,0.18972 -0.0726,0.34777 0.1109,0.35103 0.73023,0.0132 7.10494,-7.54773 8.81222,-10.45256 2.72662,-4.63903 3.14406,-4.83734 10.07455,-4.78121 5.142,0.0417 6.13758,-0.0684 9.81264,-1.0864 4.295,-1.18971 7.25963,-2.48724 9.5938,-4.19914 2.83776,-2.0813 5.77913,-3.37544 8.29773,-3.65056 0.76053,-0.0831 1.49735,-0.32899 1.6372,-0.54589 0.13986,-0.21694 0.55884,-0.27048 0.93123,-0.12013 0.44477,0.18023 0.87265,0.007 1.24611,-0.50559 0.50064,-0.68661 0.78792,-0.7347 2.4034,-0.4018 1.32547,0.27315 2.00201,0.24452 2.43617,-0.10222 0.33055,-0.26406 1.32699,-0.4928 2.21423,-0.50827 0.88724,-0.0155 1.6583,-0.0674 1.7134,-0.11556 0.0552,-0.0484 0.23319,-0.11011 0.39617,-0.13717 0.16295,-0.0271 0.50614,-0.17786 0.76285,-0.33422 0.25661,-0.1566 0.96875,-0.35272 1.5829,-0.4351 1.61042,-0.21712 2.09683,-0.33574 4.08537,-0.99705 0.98062,-0.32595 3.11827,-0.95362 4.75054,-1.3946 1.63232,-0.44089 4.30558,-1.2841 5.94073,-1.87371 1.63516,-0.58963 3.95112,-1.25789 5.14629,-1.48494 1.19517,-0.22708 2.61892,-0.56433 3.16373,-0.7495 0.54486,-0.18515 1.576,-0.42218 2.29173,-0.52691 0.71571,-0.1049 2.36057,-0.4172 3.65489,-0.69394 1.2943,-0.27681 2.35125,-0.40848 2.34902,-0.29279 -0.002,0.11558 0.22098,0.0331 0.4958,-0.183 1.23215,-0.9698 9.56184,-2.1638 9.99464,-1.43269 0.11504,0.19424 0.547,0.35922 0.9605,0.36686 0.41351,0.008 1.32709,0.34089 2.02962,0.74053 1.59625,0.9081 4.65404,1.88847 8.71644,2.79466 1.72462,0.38471 3.43992,0.87313 3.81179,1.08514 0.37186,0.21199 0.95989,0.39061 1.30689,0.39703 0.78225,0.0139 1.83553,1.28066 2.93759,3.53113 0.46345,0.94635 1.15594,1.89533 1.53848,2.10936 0.7819,0.43745 2.73435,0.36817 3.10072,-0.11004 0.27775,-0.36254 -0.40704,-4.00821 -0.83681,-4.45451 -0.60721,-0.63061 -0.23465,-1.349 0.69114,-1.33187 0.5283,0.0104 1.07337,-0.15756 1.21134,-0.37154 0.39103,-0.60654 1.89931,-0.42809 2.95665,0.34946 1.5186,1.11681 5.50284,1.14767 7.04381,0.0548 0.66947,-0.47476 1.10359,-0.98103 0.96495,-1.12501 -0.13863,-0.144 -0.023,-0.25776 0.25518,-0.2525 0.84144,0.0157 -0.21278,-1.03283 -1.63752,-1.62848 -0.6909,-0.28884 -1.49842,-0.71911 -1.79468,-0.95637 -0.68075,-0.54524 -3.53756,-1.42658 -6.19259,-1.91033 -2.14861,-0.39149 -2.66194,-0.62447 -6.74561,-3.05922 -3.07717,-1.83465 -3.35151,-2.11465 -3.65727,-3.73143 -0.20027,-1.05847 -0.0643,-1.43318 0.79874,-2.20339 1.43919,-1.28421 7.11746,-4.02961 9.54105,-4.61311 2.46416,-0.5932 10.38634,-0.27482 15.12898,0.60854 2.24118,0.41743 3.75832,0.50861 4.71823,0.28273 0.77819,-0.18312 1.98688,-0.46958 2.68573,-0.63635 0.69889,-0.1667 1.85939,-0.6309 2.5787,-1.03176 2.10313,-1.17148 1.98911,-2.45086 -0.55525,-6.23866 -1.1771,-1.75239 -2.40157,-3.75607 -2.72123,-4.45295 -0.31958,-0.69693 -1.04691,-1.5821 -1.61623,-1.96716 -1.35216,-0.91449 -3.92735,-3.83247 -3.91569,-4.43703 0.005,-0.2599 -0.22334,-0.61847 -0.50749,-0.79684 -0.28412,-0.1784 -0.83986,-0.90586 -1.23479,-1.61679 -0.81216,-1.46202 -1.69484,-1.69328 -2.02311,-0.52968 -0.26589,0.94233 -0.65001,0.98468 -1.31947,0.14619 -0.83254,-1.04275 -2.29858,-1.70202 -3.65703,-1.69016 z m -172.53825,49.58353 c 0.007,8e-5 0.011,-9.6e-4 0.0142,0.003 3.1e-4,1.6e-4 8.5e-4,5.6e-4 8.5e-4,5.6e-4 l 5.1e-4,5.3e-4 c 2e-4,2.1e-4 8.2e-4,5.7e-4 0.003,0.004 v 5.3e-4 c 1.6e-4,3.9e-4 6.1e-4,0.002 7.5e-4,0.003 0.003,0.0355 -0.17332,0.17905 -0.49791,0.4323 -1.21388,0.94705 -2.34579,1.49557 -2.00934,0.97364 0.15268,-0.23681 0.84713,-0.69314 1.54322,-1.01396 0.5691,-0.26211 0.8702,-0.39626 0.94516,-0.39978 z m -3.66656,2.36794 c 0.0691,-0.003 0.0823,0.0379 0.0255,0.12618 -0.2895,0.44906 -1.82354,1.33685 -1.81806,1.05223 0.002,-0.091 0.47348,-0.46098 1.04837,-0.82247 0.35929,-0.22594 0.62911,-0.35122 0.74417,-0.35591 z" /><path
         d="m 44.362082,124.19257 q 14.245781,0 24.742673,5.37341 10.621855,5.24845 16.370153,15.12053 5.748298,9.87207 5.748298,23.24311 0,13.37104 -5.748298,23.24312 -5.748298,9.74711 -16.370153,15.12052 -10.496892,5.37341 -24.742673,5.37341 h -28.74149 l -0.124963,-4.74859 q 2.374297,0 5.873261,0 3.623927,0 7.372817,0 3.873853,0 7.122891,0 3.374001,0 5.373409,0 2.124371,0 2.124371,0 9.62215,0 16.495115,-4.7486 6.997928,-4.87355 10.871781,-13.62096 3.873853,-8.74741 3.873853,-20.6189 0,-11.87148 -3.873853,-20.61889 -3.873853,-8.74741 -10.871781,-13.49601 -6.997928,-4.87355 -16.495115,-4.87355 0,0 -2.249334,0 -2.124371,0 -5.623335,0 -3.374001,0 -7.372817,0 -3.998816,0 -7.747706,0 -3.623927,0 -6.123187,0 v -4.7486 z m -19.494228,0 v 87.4741 H 9.6223683 v -87.4741 z m -14.8705967,78.3518 v 9.1223 H 2.1753311e-4 v -1.24963 q 0,0 0.74977798689,0 0.87474098,0 0.87474098,0 3.2490379,0 5.4983719,-2.24933 2.3742969,-2.3743 2.4992599,-5.62334 z m 0,-69.2295 h -0.374889 q 0,-3.24904 -2.3742969,-5.49837 -2.374297,-2.3743 -5.6233349,-2.3743 0,0 -0.74977798,0 -0.74977799,0 -0.74977799,0 L 2.1753311e-4,124.19257 H 9.9972573 Z"
         id="text2"
         style="font-size:124.963px;font-family:Cinzel;-inkscape-font-specification:'Cinzel, Normal';letter-spacing:36.845px;stroke:#fdfdfd;stroke-width:0;stroke-linecap:round;stroke-linejoin:round;paint-order:fill markers stroke"
         aria-label="D" /><path
         d="m 110.28492,176.40582 v 34.51314 h -6.73006 v -34.51314 z m -6.55749,30.88926 v 3.62388 h -4.42919 v -0.57522 q 0,0 0.345132,0 0.402648,0 0.402648,0 1.43805,0 2.47345,-0.86283 1.03539,-0.92035 1.03539,-2.18583 z m 6.38493,0 h 0.17256 q 0.0575,1.26548 1.0354,2.18583 1.03539,0.86283 2.53096,0.86283 0,0 0.28761,0 0.34513,0 0.40265,0 v 0.57522 h -4.42918 z m 0,-27.26538 v -3.62388 h 4.42918 l -0.0575,0.57522 q 0,0 -0.34513,0 -0.28761,0 -0.28761,0 -1.49557,0 -2.53096,0.86283 -0.97788,0.86283 -1.0354,2.18583 z m -6.38493,0 h -0.17257 q 0,-1.323 -1.03539,-2.18583 -1.0354,-0.86283 -2.47345,-0.86283 -0.05752,0 -0.402648,0 -0.345132,0 -0.345132,0 v -0.57522 h 4.42919 z m 33.57484,-4.37166 q 1.323,0 2.76105,0.11504 1.49557,0.0575 2.8761,0.23009 1.38052,0.17256 2.41591,0.40265 1.09292,0.17257 1.49557,0.34513 l -0.46017,6.5575 h -0.5177 q 0,-2.53097 -1.78318,-4.02653 -1.78318,-1.49557 -5.23449,-1.49557 -2.76105,0 -4.60175,1.38052 -1.8407,1.32301 -1.89822,3.39379 0,0.97788 0.34513,1.78318 0.40265,0.74779 1.15043,1.43805 0.74779,0.69026 1.78318,1.323 l 9.89377,6.73007 q 1.95575,1.15043 3.04866,3.22122 1.09292,2.01327 1.0354,4.60175 -0.11505,2.99114 -1.72566,5.29202 -1.55309,2.24335 -4.31414,3.50884 -2.76106,1.20796 -6.38493,1.20796 -2.18584,0 -4.25663,-0.34514 -2.07078,-0.34513 -3.62388,-0.97787 -1.55309,-0.69026 -2.53096,-1.61061 -0.34513,-1.0354 -0.28761,-2.53097 0.0575,-1.49556 0.40265,-3.04866 0.40266,-1.55309 0.92036,-2.646 h 0.57521 q -0.17256,2.58848 0.86283,4.65927 1.09292,2.07079 3.16371,3.27875 2.12831,1.15044 5.0044,1.15044 3.39379,-0.0575 5.17697,-1.61062 1.78318,-1.61061 1.78318,-3.96901 0,-1.49557 -0.86283,-2.70353 -0.8053,-1.20796 -2.70353,-2.30087 l -9.26102,-6.44246 q -2.47344,-1.43804 -3.50884,-3.62388 -1.03539,-2.24335 -0.8053,-4.71679 0.17256,-2.58849 1.49557,-4.48671 1.323,-1.95574 3.50883,-2.99114 2.24336,-1.09291 5.06193,-1.09291 z m 9.60616,0.51769 -0.0575,0.97788 h -5.46458 v -0.97788 z m 24.25629,0.23009 h 5.86723 q 4.37167,0 7.30528,1.26548 2.93362,1.20796 4.37167,3.39379 1.49557,2.18584 1.55309,4.94689 0.11504,3.39379 -1.38053,5.86723 -1.43805,2.41592 -3.91149,3.73893 -2.41592,1.323 -5.40706,1.20796 -2.93361,-0.11505 -5.75219,-1.84071 v -0.51769 q 0,0 0.69027,0.0575 0.69026,0.0575 1.78318,-0.11504 1.15043,-0.17257 2.35839,-0.69027 1.26549,-0.57522 2.3584,-1.78318 1.09292,-1.20796 1.72566,-3.27874 0.17256,-0.74779 0.23009,-1.5531 0.11504,-0.86282 0.11504,-1.55309 -0.0575,-3.27875 -2.07079,-5.17697 -2.01326,-1.89822 -5.57962,-1.89822 h -3.6814 q 0,0 -0.17257,-0.5177 -0.11504,-0.5177 -0.28761,-1.03539 z m 0.69026,0 v 34.51314 h -6.73006 v -34.51314 z m -6.61502,30.88926 0.40265,3.62388 h -4.42918 v -0.57522 q 0,0 0.34513,0 0.34513,0 0.34513,0 1.323,0 2.24335,-0.86283 0.92036,-0.92035 0.97788,-2.18583 z m 0,-27.26538 h -0.11504 q -0.0575,-1.323 -0.97788,-2.18583 -0.92035,-0.86283 -2.24335,-0.86283 -0.0575,0 -0.40265,0 -0.28761,0 -0.34513,0 v -0.57522 h 4.4867 z m 6.44245,27.26538 h 0.11505 q 0.0575,1.26548 0.92035,2.18583 0.92035,0.86283 2.30087,0.86283 0.0575,0 0.34514,0 0.34513,0 0.40265,0 l -0.0575,0.57522 h -4.42919 z m 49.91108,-31.63704 q 4.37167,0 8.05307,1.26548 3.6814,1.26548 6.38493,3.62388 2.70353,2.3584 4.14157,5.69467 1.49557,3.27874 1.49557,7.42032 0,4.14158 -1.49557,7.47785 -1.43804,3.27875 -4.14157,5.63714 -2.70353,2.3584 -6.38493,3.62388 -3.6814,1.26549 -8.05307,1.26549 -4.37166,0 -8.05306,-1.26549 -3.68141,-1.26548 -6.38494,-3.62388 -2.646,-2.35839 -4.14157,-5.63714 -1.43805,-3.33627 -1.43805,-7.47785 0,-4.14158 1.43805,-7.42032 1.49557,-3.33627 4.14157,-5.69467 2.70353,-2.3584 6.38494,-3.62388 3.6814,-1.26548 8.05306,-1.26548 z m 0,33.93792 q 3.73892,0 6.61502,-1.95575 2.87609,-1.95574 4.48671,-5.5221 1.66813,-3.62388 1.66813,-8.45572 0,-4.88936 -1.66813,-8.45572 -1.61062,-3.56636 -4.48671,-5.5221 -2.8761,-1.95575 -6.61502,-1.95575 -3.73892,0 -6.61502,1.95575 -2.87609,1.95574 -4.48671,5.5221 -1.61061,3.56636 -1.61061,8.45572 0,4.83184 1.61061,8.45572 1.61062,3.56636 4.48671,5.5221 2.8761,1.95575 6.61502,1.95575 z m 34.20767,-33.99545 33.13261,29.79635 0.57522,6.26989 -33.13261,-29.85387 z m 0.17256,31.80961 v 3.50884 h -4.25662 v -0.57522 q 0,0 0.46018,0 0.46017,0 0.46017,0 1.32301,0 2.24336,-0.80531 0.92035,-0.86282 0.92035,-2.12831 z m 5.92476,0 q 0.0575,1.26549 0.97787,2.12831 0.97788,0.80531 2.18583,0.80531 0,0 0.46018,0 0.5177,0 0.5177,0 v 0.57522 h -4.25662 v -3.50884 z m -6.09732,-31.80961 6.09732,6.84511 v 28.47334 h -6.09732 v -28.58838 q 0,-2.93362 -0.28761,-4.83184 -0.28761,-1.89823 -0.28761,-1.89823 z m 33.65031,0.80531 v 28.3583 q 0,1.95574 0.11504,3.50883 0.17257,1.55309 0.28761,2.47344 0.17257,0.92036 0.17257,0.92036 h -0.5177 l -6.15484,-7.13272 v -28.12821 z m -0.17257,3.50884 v -3.50884 h 4.31415 v 0.57522 q 0,0 -0.5177,0 -0.46017,0 -0.46017,0 -1.26549,0 -2.24336,0.86283 -0.92035,0.8053 -0.92035,2.07079 z m -5.92475,0 q -0.0575,-1.26549 -0.97787,-2.07079 -0.92035,-0.86283 -2.18584,-0.86283 0,0 -0.51769,0 -0.46018,0 -0.46018,0 v -0.57522 h 4.25662 v 3.50884 z m 31.504,-3.50884 v 34.51314 h -6.73006 v -34.51314 z m 14.15039,32.38483 0.86283,2.12831 h -15.12826 v -2.12831 z m -2.24335,-16.10613 v 2.12831 h -12.02208 v -2.12831 z m 2.646,-16.2787 v 2.12831 h -14.66808 v -2.12831 z m 3.10619,24.73442 -2.53097,9.77872 h -9.54863 l 1.8407,-2.12831 q 2.64601,0 4.48671,-0.92035 1.89822,-0.97787 3.1637,-2.70353 1.26548,-1.72566 2.07079,-4.02653 z m -5.75219,-6.44246 v 4.48671 h -0.57522 v -0.51769 q 0,-1.61062 -0.97787,-2.70353 -0.97788,-1.09292 -2.76106,-1.15044 v -0.11505 z m 0,-6.3274 v 4.42918 h -4.31415 v -0.11504 q 1.78318,0 2.76106,-1.09292 0.97787,-1.09291 0.97787,-2.70353 v -0.51769 z m 2.646,-10.00881 v 5.40705 h -0.63274 v -0.63274 q 0,-2.07079 -1.15043,-3.33627 -1.15044,-1.26548 -3.27875,-1.26548 v -0.17256 z m 0,-2.8761 v 1.49557 l -6.21236,-0.57522 q 1.66813,0 3.56636,-0.28761 1.89822,-0.34513 2.646,-0.63274 z m -21.16806,31.80961 0.40266,3.62388 h -4.48671 v -0.57522 q 0,0 0.34513,0 0.40265,0 0.40265,0 1.32301,0 2.24336,-0.86283 0.92035,-0.92035 0.97787,-2.18583 z m 0,-27.26538 h -0.11504 q -0.0575,-1.323 -0.97787,-2.18583 -0.92035,-0.86283 -2.24336,-0.86283 0,0 -0.40265,0 -0.34513,0 -0.34513,0 v -0.57522 h 4.48671 z m 44.7341,-3.62388 h 6.5575 q 2.53096,0 4.71679,0.5177 2.24336,0.51769 3.91149,1.66813 1.72566,1.09292 2.64601,2.8761 0.97787,1.78318 0.97787,4.31414 0,2.12831 -0.92035,4.1991 -0.92035,2.01327 -2.76105,3.45131 -1.8407,1.38053 -4.60175,1.72566 1.43804,0.46018 2.87609,1.95574 1.49557,1.49557 2.30088,2.81858 0.17256,0.28761 0.8053,1.323 0.69027,0.97787 1.66814,2.3584 0.97787,1.323 2.01327,2.64601 1.15043,1.49557 2.07078,2.41592 0.92035,0.86282 1.89823,1.26548 1.03539,0.40265 2.30087,0.40265 v 0.57522 h -3.79644 q -3.10619,0 -5.2345,-0.57522 -2.12831,-0.57522 -3.62388,-1.78318 -1.43804,-1.20796 -2.646,-2.99114 -0.40266,-0.63274 -1.09292,-1.72565 -0.63274,-1.09292 -1.323,-2.24336 -0.69027,-1.20796 -1.26548,-2.24335 -0.57522,-1.09292 -0.74779,-1.66814 -0.86283,-1.72565 -2.01327,-2.646 -1.15043,-0.92035 -2.24335,-0.97788 v -0.51769 q 0.0575,0 0.63274,0.0575 0.57522,0 1.43805,-0.0575 1.323,-0.0575 2.64601,-0.40266 1.38052,-0.34513 2.47344,-1.49557 1.09291,-1.15043 1.66813,-3.56635 0.17257,-0.46018 0.23009,-1.15044 0.11504,-0.69026 0.0575,-1.55309 -0.0575,-1.95575 -0.69026,-3.22123 -0.63274,-1.323 -1.61061,-2.07079 -0.97788,-0.74778 -2.12831,-1.09291 -1.15044,-0.34514 -2.18584,-0.40266 -1.66813,-0.0575 -2.93361,0 -1.26548,0 -1.55309,0 -0.0575,-0.0575 -0.17257,-0.57522 -0.11504,-0.51769 -0.23009,-1.03539 z m 0.57522,0 v 34.51314 h -6.78759 v -34.51314 z m -6.61502,30.88926 0.40265,3.62388 h -4.37166 v -0.57522 q 0,0 0.28761,0 0.34513,0 0.40265,0 1.323,0 2.18583,-0.86283 0.92035,-0.92035 0.97788,-2.18583 z m 0,-27.26538 h -0.11504 q -0.0575,-1.323 -0.97788,-2.18583 -0.86283,-0.86283 -2.12831,-0.86283 -0.11504,0 -0.46017,0 -0.28761,0 -0.28761,0 v -0.57522 h 4.37166 z m 6.49997,27.26538 h 0.11505 q 0.0575,1.323 1.03539,2.18583 0.97787,0.86283 2.18583,0.86283 0,0 0.28761,0 0.28761,0 0.34513,0 l 0.0575,0.57522 h -4.42919 z m 50.3137,-32.21226 16.62383,35.49101 h -7.99555 l -11.21677,-26.74768 z m -10.92916,31.92465 q -0.63274,1.61061 0.17256,2.47344 0.80531,0.86283 1.78318,0.86283 h 0.46018 v 0.57522 h -11.33182 v -0.57522 q 0,0 0.23009,0 0.23009,0 0.23009,0 1.20796,0 2.47344,-0.74778 1.26548,-0.80531 2.07079,-2.58849 z m 10.92916,-31.92465 0.17256,5.92475 -12.71234,29.73882 h -4.02653 l 13.51765,-29.04855 q 0.0575,-0.23009 0.40265,-1.0354 0.40265,-0.80531 0.86283,-1.89822 0.46017,-1.09292 0.80531,-2.07079 0.40265,-1.03539 0.46017,-1.61061 z m 5.57962,23.87159 v 2.07078 h -14.89817 v -2.07078 z m 1.55309,8.05306 h 7.82298 q 0.80531,1.78318 2.07079,2.58849 1.26548,0.74778 2.41592,0.74778 0,0 0.23009,0 0.23009,0 0.23009,0 v 0.57522 h -15.18579 v -0.57522 h 0.46018 q 0.97787,0 1.78318,-0.86283 0.8053,-0.86283 0.17256,-2.47344 z"
         id="text3"
         style="font-size:57.5219px;font-family:Cinzel;-inkscape-font-specification:'Cinzel, Normal';letter-spacing:6.76963px;stroke:#fdfdfd;stroke-width:0;stroke-linecap:round;stroke-linejoin:round;paint-order:fill markers stroke"
         aria-label="isponera" /></g></g></svg>
